# xmcd
# 
# Track frame offsets:
#     150
#     29340
#     57807
#     75080
#     95340
#     137277
#     169202
#     194412
#     215920
# 
# Disc length: 3266
# 
# Revision: 6
# Processed by: cddbd v1.5.2PL0 Copyright (c) Steve Scherf et al.
# Submitted via: fre:ac v1.0.27
# 
DISCID=700cc009
DTITLE=Loreena McKennitt - Live In Paris And Toronto
DYEAR=1999
DGENRE=Celtic, New Age
TTITLE0=The Mystic's Dream
TTITLE1=Santiago
TTITLE2=Bonny Portmore
TTITLE3=Between The Shadows
TTITLE4=The Lady Of Shalott
TTITLE5=The Bonny Swans
TTITLE6=The Old Ways
TTITLE7=All Souls Night
TTITLE8=Cymbeline
EXTD=CD 2007/2014 - CD 2/2\nQuinlan Road - QRCD108R\nLive - 'The Book Of Secrets' Tour\nApril 19, 1998 - May 3-4, 1998\nSalle Pleyel, Paris - Massey Hall, Toronto
EXTT0=
EXTT1=
EXTT2=
EXTT3=
EXTT4=
EXTT5=
EXTT6=
EXTT7=
EXTT8=
PLAYORDER=
